<svg width="100" height="100" fill="none" xmlns="http://www.w3.org/2000/svg"><circle cx="50" cy="50" r="50" fill="#FF7500" fill-opacity=".2"/><path d="M40.68 27.352a2.8 2.8 0 0 0-5.408 1.45l.724 2.704a2.8 2.8 0 1 0 5.41-1.45l-.725-2.704ZM28.802 35.272a2.8 2.8 0 0 0-1.45 5.409l2.705.725a2.8 2.8 0 1 0 1.45-5.41l-2.706-.724ZM53.48 33.68a2.8 2.8 0 0 0-3.96-3.96l-1.98 1.98a2.8 2.8 0 1 0 3.96 3.96l1.98-1.98ZM33.68 53.48l1.98-1.98a2.8 2.8 0 1 0-3.96-3.96l-1.98 1.98a2.8 2.8 0 1 0 3.96 3.96ZM42.64 39A2.8 2.8 0 0 0 39 42.64l11.2 28a2.8 2.8 0 0 0 5.104.212l3.863-7.725 8.453 8.453a2.8 2.8 0 1 0 3.96-3.96l-8.453-8.453 7.725-3.863a2.8 2.8 0 0 0-.212-5.104l-28-11.2Z" fill="#FF7500"/></svg>